<svg class="lds-polar" width="100%" height="100%" xmlns="http://www.w3.org/2000/svg" xmlns:xlink="http://www.w3.org/1999/xlink" viewBox="0 0 100 100" preserveAspectRatio="xMidYMid" style="background: none;"><g transform="translate(50 50)"><g transform="scale(0.849147 0.849147)">
<path d="M0 0L0 -40A40 40 0 0 1 34.64101615137754 -20.000000000000004" transform="rotate(0 0 0)" stroke="none" fill="#1d3f72"></path>
<animateTransform attributeName="transform" type="scale" values="0.26164275732673103;0.7916631813594859;0.9014667666503704;0.511905250658778;0.26164275732673103" keyTimes="0;0.25;0.5;0.75;1" dur="1s" repeatCount="indefinite"></animateTransform>
</g><g transform="scale(0.117739 0.117739)">
<path d="M0 0L0 -40A40 40 0 0 1 34.64101615137754 -20.000000000000004" transform="rotate(60 0 0)" stroke="none" fill="#5699d2"></path>
<animateTransform attributeName="transform" type="scale" values="0.7130669915811318;0.1236823345915141;0.11711024519792954;0.08765882954834035;0.7777091045223149;0.7130669915811318" keyTimes="0;0.2;0.4;0.6;0.8;1" dur="1s" repeatCount="indefinite"></animateTransform>
</g><g transform="scale(0.319943 0.319943)">
<path d="M0 0L0 -40A40 40 0 0 1 34.64101615137754 -20.000000000000004" transform="rotate(120 0 0)" stroke="none" fill="#d8ebf9"></path>
<animateTransform attributeName="transform" type="scale" values="0.4740286403452359;0.21042605648052423;0.978244466583158;0.4740286403452359" keyTimes="0;0.3333333333333333;0.6666666666666666;1" dur="1s" repeatCount="indefinite"></animateTransform>
</g><g transform="scale(0.422015 0.422015)">
<path d="M0 0L0 -40A40 40 0 0 1 34.64101615137754 -20.000000000000004" transform="rotate(180 0 0)" stroke="none" fill="#71c2cc"></path>
<animateTransform attributeName="transform" type="scale" values="0.45109631996915917;0.41291906421662444;0.45109631996915917" keyTimes="0;0.5;1" dur="1s" repeatCount="indefinite"></animateTransform>
</g><g transform="scale(0.854166 0.854166)">
<path d="M0 0L0 -40A40 40 0 0 1 34.64101615137754 -20.000000000000004" transform="rotate(240 0 0)" stroke="none" fill="#1d3f72"></path>
<animateTransform attributeName="transform" type="scale" values="0.17420792581678468;0.6239447562817326;0.8785046206234913;0.8621249200436036;0.646450368851245;0.17420792581678468" keyTimes="0;0.2;0.4;0.6;0.8;1" dur="1s" repeatCount="indefinite"></animateTransform>
</g><g transform="scale(0.596163 0.596163)">
<path d="M0 0L0 -40A40 40 0 0 1 34.64101615137754 -20.000000000000004" transform="rotate(300 0 0)" stroke="none" fill="#5699d2"></path>
<animateTransform attributeName="transform" type="scale" values="0.2174525402893104;0.679441786287182;0.09557831438203132;0.2174525402893104" keyTimes="0;0.3333333333333333;0.6666666666666666;1" dur="1s" repeatCount="indefinite"></animateTransform>
</g></g></svg>